<svg width="71" height="71" viewBox="0 0 71 71" fill="none" xmlns="http://www.w3.org/2000/svg">
<path fill-rule="evenodd" clip-rule="evenodd" d="M55.309 24.1045C55.2262 23.1283 55.1463 22.1343 55.1463 21.9361C55.0337 16.7934 52.8841 11.9058 49.1697 8.3473C45.4553 4.78879 40.4801 2.8505 35.3373 2.95837C30.196 2.85208 25.2228 4.79067 21.5098 8.34838C17.7967 11.9061 15.6476 16.792 15.5342 21.9331C15.5342 22.1225 15.4662 22.9981 15.3922 23.9063C16.753 24.8116 19.3386 26.2316 22.5957 27.5155C26.5126 29.0657 31.1512 30.32 35.5 30.32C39.8488 30.32 44.4874 29.0657 48.4042 27.5185C51.4365 26.3203 53.886 25.0068 55.309 24.1045ZM56.8562 28.3586C55.1167 29.3852 52.7352 30.5774 50.0343 31.6453C45.8394 33.302 40.6179 34.7605 35.5 34.7605C34.7604 34.7605 34.0208 34.7309 33.2812 34.6717V39.9375C33.2812 40.526 33.0475 41.0903 32.6314 41.5064C32.2153 41.9225 31.6509 42.1563 31.0625 42.1563H23.6667C23.0782 42.1563 22.5139 41.9225 22.0978 41.5064C21.6817 41.0903 21.4479 40.526 21.4479 39.9375V31.8347L20.9657 31.6483C18.5292 30.6907 16.1711 29.5443 13.913 28.2196C10.8364 33.1718 4.10025 44.9105 6.85446 48.422C7.79521 49.6202 9.91338 48.9871 12.0611 47.857C12.1595 47.8062 12.2683 47.7791 12.379 47.7779C12.4896 47.7767 12.599 47.8013 12.6985 47.8499C12.7979 47.8985 12.8846 47.9696 12.9517 48.0577C13.0188 48.1457 13.0643 48.2482 13.0847 48.357C13.768 52.0727 15.4341 55.5377 17.9097 58.3916L17.9748 58.4804C19.525 59.9595 22.1461 61.6931 25.0334 63.1752C27.9178 64.6574 30.9028 65.8022 33.1452 66.1987H33.2517C34.6492 66.3232 36.055 66.3232 37.4525 66.1987H37.5501C39.7925 65.8022 42.7745 64.6574 45.656 63.1752C48.5847 61.6724 51.2383 59.9092 52.7826 58.4182L52.7855 58.4123L52.7944 58.4035C55.2745 55.544 56.9418 52.0715 57.6224 48.3481C57.6423 48.2386 57.6876 48.1354 57.7547 48.0467C57.8218 47.9579 57.9087 47.8862 58.0086 47.8373C58.1085 47.7884 58.2185 47.7636 58.3297 47.7649C58.441 47.7663 58.5503 47.7938 58.649 47.8452C60.7967 48.9782 62.9178 49.6143 63.8615 48.4132C66.527 44.9815 59.9536 33.3937 56.8562 28.3586ZM55.0753 60.2435C55.0096 60.3529 54.9301 60.4534 54.8386 60.5423C53.0045 62.3173 50.0639 64.2402 47.0079 65.8082C45.5998 66.53 44.1265 67.1986 42.6888 67.7547C43.9982 67.9743 45.3257 68.0674 46.6529 68.0328C52.895 68.0328 57.9715 65.9442 57.9715 63.3646C57.9715 62.1635 56.8769 61.0719 55.0753 60.2435ZM12.7327 63.3675C12.7327 62.1694 13.8272 61.0807 15.617 60.2524C15.6829 60.3608 15.7625 60.4602 15.8537 60.5482C17.6879 62.3232 20.6285 64.2402 23.6815 65.8111C25.0926 66.5359 26.5658 67.2015 28.0065 67.7577C26.6991 67.9769 25.3736 68.07 24.0483 68.0358C17.7944 68.0358 12.7327 65.9472 12.7327 63.3675ZM35.5 26.625C38.1921 26.625 41.3338 25.776 43.7715 24.7199C44.7685 24.288 44.7832 23.0188 43.7952 22.5692C41.9344 21.729 38.9731 20.7084 35.5 20.7084C32.0269 20.7084 29.0627 21.729 27.2078 22.5721C26.2167 23.0188 26.2315 24.288 27.2285 24.7199C29.6662 25.776 32.8109 26.625 35.5 26.625ZM31.8021 11.8334C31.8021 11.2449 31.5683 10.6806 31.1522 10.2645C30.7361 9.84838 30.1718 9.61462 29.5833 9.61462C28.9949 9.61462 28.4305 9.84838 28.0144 10.2645C27.5983 10.6806 27.3646 11.2449 27.3646 11.8334V14.7917C27.3646 15.3802 27.5983 15.9445 28.0144 16.3606C28.4305 16.7767 28.9949 17.0105 29.5833 17.0105C30.1718 17.0105 30.7361 16.7767 31.1522 16.3606C31.5683 15.9445 31.8021 15.3802 31.8021 14.7917V11.8334ZM37.7188 14.7917C37.7188 14.2033 37.9525 13.6389 38.3686 13.2228C38.7847 12.8067 39.349 12.573 39.9375 12.573H42.8958C43.4843 12.573 44.0486 12.8067 44.4647 13.2228C44.8808 13.6389 45.1146 14.2033 45.1146 14.7917C45.1146 15.3802 44.8808 15.9445 44.4647 16.3606C44.0486 16.7767 43.4843 17.0105 42.8958 17.0105H39.9375C39.349 17.0105 38.7847 16.7767 38.3686 16.3606C37.9525 15.9445 37.7188 15.3802 37.7188 14.7917Z" fill="white"/>
</svg>
